<?xml version="1.0" encoding="UTF-8" standalone="no"?>
<!-- Created with Inkscape (http://www.inkscape.org/) -->

<svg
   version="1.1"
   id="svg2"
   width="529.16534"
   height="374.57867"
   viewBox="0 0 529.16534 374.57867"
   sodipodi:docname="35033-18_LOGO_GENT_CORPORATE_CYAAN-8031d0.ai"
   xmlns:inkscape="http://www.inkscape.org/namespaces/inkscape"
   xmlns:sodipodi="http://sodipodi.sourceforge.net/DTD/sodipodi-0.dtd"
   xmlns="http://www.w3.org/2000/svg"
   xmlns:svg="http://www.w3.org/2000/svg">
  <defs
     id="defs6">
    <clipPath
       clipPathUnits="userSpaceOnUse"
       id="clipPath16">
      <path
         d="M 0,280.934 H 396.874 V 0 H 0 Z"
         id="path14" />
    </clipPath>
  </defs>
  <sodipodi:namedview
     id="namedview4"
     pagecolor="#ffffff"
     bordercolor="#000000"
     borderopacity="0.25"
     inkscape:showpageshadow="2"
     inkscape:pageopacity="0.0"
     inkscape:pagecheckerboard="0"
     inkscape:deskcolor="#d1d1d1" />
  <g
     id="g8"
     inkscape:groupmode="layer"
     inkscape:label="35033-18_LOGO_GENT_CORPORATE_CYAAN-8031d0"
     transform="matrix(1.3333333,0,0,-1.3333333,0,374.57867)">
    <g
       id="g10">
      <g
         id="g12"
         clip-path="url(#clipPath16)">
        <g
           id="g18"
           transform="translate(370.4883,0.3045)">
          <path
             d="m 0,0 h -344.126 c -14.499,0 -26.362,11.863 -26.362,26.362 v 227.906 c 0,14.499 11.863,26.362 26.362,26.362 H 0 c 14.499,0 26.362,-11.863 26.362,-26.362 V 26.362 C 26.362,11.863 14.499,0 0,0"
             style="fill:#009fe3;fill-opacity:1;fill-rule:nonzero;stroke:none"
             id="path20" />
        </g>
        <g
           id="g22"
           transform="translate(47.3457,126.7938)">
          <path
             d="m 0,0 c 1.608,-9.11 7.634,-13.592 15.697,-12.17 8.511,1.501 12.096,7.371 10.386,17.075 C 24.422,14.313 19.302,18.03 10.494,16.476 2.426,15.053 -1.524,8.662 0,0 M 28.67,24.299 C 39.134,21.684 45.116,16.573 46.88,6.572 49.593,-8.809 39.178,-22.19 19.014,-25.747 15.58,-26.351 12.544,-26.58 9.573,-26.336 7.99,-27.842 7.137,-30 7.507,-32.09 c 0.473,-2.689 2.265,-4.988 10.031,-3.619 l 12.096,2.134 c 17.918,3.156 31.101,-4.37 33.42,-17.509 2.816,-15.979 -9.359,-28.134 -35.792,-32.791 -28.967,-5.11 -38.54,2.898 -41.331,18.731 l 18.96,3.342 c 1.32,-7.469 5.184,-10.172 20.266,-7.511 14.635,2.581 17.806,7.292 16.807,12.967 -0.949,5.373 -5.558,7.95 -13.922,6.48 l -11.649,-2.056 c -16.573,-2.923 -24.709,3.03 -26.18,11.395 -1.004,5.675 1.608,11.828 6.65,16.417 -10.801,3.639 -16.218,9.919 -18.01,20.071 -3.08,17.47 8.832,31.12 28.689,34.618 18.297,2.767 26.74,9.034 35.348,16.091 L 50.987,31.319 C 45.56,28.051 38.223,25.985 28.67,24.299"
             style="fill:#ffffff;fill-opacity:1;fill-rule:nonzero;stroke:none"
             id="path24" />
        </g>
        <g
           id="g26"
           transform="translate(157.2451,140.1663)">
          <path
             d="m 0,0 c -2.109,11.945 -7.507,18.999 -17.665,17.207 -8.359,-1.472 -12.588,-8.068 -11,-23.185 l 28.821,5.082 z m 23.106,-10.552 -49.427,-8.715 c 4.179,-14.971 12.135,-18.187 22.292,-16.399 6.718,1.184 12.023,4.278 18.05,10.27 l 10.917,-10.392 c -6.655,-7.643 -15.726,-13.859 -28.119,-16.046 -25.386,-4.472 -41.623,9.909 -45.993,34.696 -4.214,23.89 5.363,44.67 28.508,48.752 22.4,3.951 38.321,-8.637 42.773,-33.875 0.473,-2.689 0.751,-6.026 0.999,-8.291"
             style="fill:#ffffff;fill-opacity:1;fill-rule:nonzero;stroke:none"
             id="path28" />
        </g>
        <g
           id="g30"
           transform="translate(258.4727,168.6409)">
          <path
             d="m 0,0 10.162,-57.641 -21.206,-3.736 -9.529,54.052 c -1.608,9.113 -5.339,11.069 -10.712,10.121 -6.124,-1.079 -10.192,-5.95 -13.285,-13.738 l 9.635,-54.65 -21.206,-3.741 -13.952,79.142 18.371,3.239 3.401,-9.711 c 5.027,9.049 11.852,14.866 22.005,16.656 C -12.428,22.441 -2.631,14.934 0,0"
             style="fill:#ffffff;fill-opacity:1;fill-rule:nonzero;stroke:none"
             id="path32" />
        </g>
        <g
           id="g34"
           transform="translate(315.9531,116.8797)">
          <path
             d="m 0,0 c -16.451,-2.748 -26.473,5.184 -29.58,22.809 l -6.952,39.421 -11.794,-2.08 -2.636,14.929 11.799,2.08 -3.055,17.326 20.759,6.278 3.502,-19.865 18.215,3.213 0.546,-15.297 -16.13,-2.845 6.874,-38.975 c 1.369,-7.765 4.433,-10.304 9.811,-9.359 2.835,0.502 5.52,1.9 8.457,4.424 L 19.53,9.753 C 14.42,4.696 7.021,1.237 0,0"
             style="fill:#ffffff;fill-opacity:1;fill-rule:nonzero;stroke:none"
             id="path36" />
        </g>
        <g
           id="g38"
           transform="translate(361.2119,196.0486)">
          <path
             d="m 0,0 c 1.237,-7.018 -3.41,-13.84 -10.576,-15.104 -7.021,-1.24 -13.724,3.585 -14.961,10.603 -1.208,6.866 3.439,13.689 10.459,14.929 C -7.912,11.692 -1.208,6.867 0,0"
             style="fill:#ffffff;fill-opacity:1;fill-rule:nonzero;stroke:none"
             id="path40" />
        </g>
        <g
           id="g42"
           transform="translate(369.6152,142.136)">
          <path
             d="m 0,0 c 1.237,-7.015 -3.415,-13.84 -10.581,-15.102 -7.02,-1.242 -13.719,3.585 -14.956,10.601 -1.213,6.874 3.434,13.689 10.455,14.931 C -7.916,11.692 -1.213,6.874 0,0"
             style="fill:#ffffff;fill-opacity:1;fill-rule:nonzero;stroke:none"
             id="path44" />
        </g>
      </g>
    </g>
  </g>
</svg>
